Coordinates
nRows=122
nColumns=2
inDegrees=yes
endheader
time	ankle_angle_r	
3	  9.300610	
3.0625	  9.332904	
3.125	  9.296348	
3.1875	  9.289973	
3.25	  9.350549	
3.3125	  9.389447	
3.375	  9.372675	
3.4375	  9.332371	
3.5	  9.319386	
3.5625	  9.344592	
3.625	  9.344790	
3.6875	  9.316167	
3.75	  9.310130	
3.8125	  9.333669	
3.875	  9.374033	
3.9375	  9.379077	
4	  9.334083	
4.0625	  9.311270	
4.125	  9.320989	
4.1875	  9.338612	
4.25	  9.356421	
4.3125	  9.340844	
4.375	  9.331187	
4.4375	  9.364053	
4.5	  9.356203	
4.5625	  9.311154	
4.625	  9.310931	
4.6875	  9.329546	
4.75	  9.343436	
4.8125	  9.372070	
4.875	  9.381793	
4.9375	  9.349146	
5	  9.324892	
5.0625	  9.343435	
5.125	  9.350596	
5.1875	  9.328078	
5.25	  9.344061	
5.3125	  9.385494	
5.375	  9.394599	
5.4375	  9.397329	
5.5	  9.390083	
5.5625	  9.356841	
5.625	  9.345917	
5.6875	  9.353517	
5.75	  9.357103	
5.8125	  9.364190	
5.875	  9.362088	
5.9375	  9.367223	
6	  9.376175	
6.0625	  9.362694	
6.125	  9.358210	
6.1875	  9.357660	
6.25	  9.349320	
6.3125	  9.362936	
6.375	  9.368785	
6.4375	  9.351542	
6.5	  9.339925	
6.5625	  9.334602	
6.625	  9.337548	
6.6875	  9.342938	
6.75	  9.353058	
6.8125	  9.374606	
6.875	  9.378500	
6.9375	  9.384518	
7	  9.406470	
7.0625	  9.383548	
7.125	  9.343517	
7.1875	  9.333677	
7.25	  9.327086	
7.3125	  9.350430	
7.375	  9.384100	
7.4375	  9.378313	
7.5	  9.381216	
7.5625	  9.393078	
7.625	  9.388777	
7.6875	  9.379077	
7.75	  9.360611	
7.8125	  9.369144	
7.875	  9.399962	
7.9375	  9.408025	
8	  9.405523	
8.0625	  9.377204	
8.125	  9.335517	
8.1875	  9.341681	
8.25	  9.360086	
8.3125	  9.364066	
8.375	  9.372594	
8.4375	  9.370442	
8.5	  9.380048	
8.5625	  9.374631	
8.625	  9.321863	
8.6875	  9.317892	
8.75	  9.357948	
8.8125	  9.352374	
8.875	  9.341452	
8.9375	  9.354686	
9	  9.366066	
9.0625	  9.378863	
9.125	  9.375584	
9.1875	  9.356632	
9.25	  9.341377	
9.3125	  9.330325	
9.375	  9.346217	
9.4375	  9.371768	
9.5	  9.381241	
9.5625	  9.394813	
9.625	  9.384217	
9.6875	  9.348240	
9.75	  9.334188	
9.8125	  9.335272	
9.875	  9.355690	
9.9375	  9.383611	
10	  9.378847	
10.0625	  9.370637	
10.125	  9.363882	
10.1875	  9.341011	
10.25	  9.326170	
10.3125	  9.291783	
10.375	  9.247861	
10.4375	  9.260015	
10.5	  9.287110	
10.5625	  9.272457	
